# xmcd
#
# Track frame offsets:
#	150
#	17540
#	36665
#	57295
#	81066
#	105886
#	132172
#	157859
#	175267
#	201077
#
# Disc length: 2963 seconds
#
# Revision: 1
# Processed by: cddbd v1.5.2PL0 Copyright (c) Steve Scherf et al.
# Submitted via: EZCDAudioConverter 8.0.2.1
#
DISCID=740b910a
DTITLE=Various Artist - Mẹ Yêu Con
DYEAR=2009
DGENRE=World Pop
TTITLE0=Ngọc Tuyền - Bà mẹ quê
TTITLE1=Thanh Thúy - Mẹ Yêu Con
TTITLE2=Ái Xuân, Cadillac - Đất nước lời ru
TTITLE3=Phù Sa - Cánh cò trong câu hát mẹ ru
TTITLE4=Diệu Hiền - Ca dao mẹ
TTITLE5=Thu Giang - Lời ru trên nương
TTITLE6=Ngọc Tuyền - Địu con đi nhà trẻ
TTITLE7=Phù Sa - Tiếng võng ru trưa
TTITLE8=Lan Hạnh - Ru con mùa đông
TTITLE9=Mai Khôi, Cadillac - Lời mẹ ru
EXTD=
EXTT0=
EXTT1=
EXTT2=
EXTT3=
EXTT4=
EXTT5=
EXTT6=
EXTT7=
EXTT8=
EXTT9=
PLAYORDER=
